<svg width="2997" height="600" viewBox="0 0 2997 600" fill="none" xmlns="http://www.w3.org/2000/svg">
<g clip-path="url(#clip0_285_18)">
<path d="M252.575 540.975L183.523 474.06L250.439 405.008L319.491 471.924L252.575 540.975Z" fill="#2F2F2E"/>
<path d="M47.5555 476.195L116.607 543.111L183.523 474.06L250.439 405.008L319.491 471.924L388.543 538.84L455.459 469.788L248.303 269.04L47.5555 476.195Z" fill="#AD46FF"/>
<path d="M0 308.396L84.0478 392.444L251.719 224.772L419.815 392.868L503.651 309.032L251.507 56.8887L0 308.396Z" fill="#2F2F2E"/>
<path d="M825.617 104.577H904.098V470.967H825.617V446.367C807.131 467.652 781.145 478.295 747.66 478.295C713.128 478.295 683.655 465.035 659.238 438.515C634.822 411.647 622.614 378.846 622.614 340.114C622.614 301.381 634.822 268.755 659.238 242.235C683.655 215.367 713.128 201.932 747.66 201.932C781.145 201.932 807.131 212.575 825.617 233.86V104.577ZM718.36 386.697C729.871 398.213 744.869 403.97 763.356 403.97C781.842 403.97 796.841 398.213 808.351 386.697C819.862 375.182 825.617 359.654 825.617 340.114C825.617 320.573 819.862 305.045 808.351 293.53C796.841 282.015 781.842 276.257 763.356 276.257C744.869 276.257 729.871 282.015 718.36 293.53C706.85 305.045 701.095 320.573 701.095 340.114C701.095 359.654 706.85 375.182 718.36 386.697Z" fill="#2F2F2E"/>
<path d="M1031.78 371.518C1040.85 395.944 1061.78 408.157 1094.57 408.157C1115.85 408.157 1132.59 401.528 1144.8 388.268L1207.58 424.383C1181.77 460.324 1143.75 478.295 1093.52 478.295C1049.57 478.295 1014.34 465.21 987.835 439.039C961.675 412.868 948.594 379.893 948.594 340.114C948.594 300.683 961.5 267.882 987.311 241.712C1013.47 215.192 1046.96 201.932 1087.77 201.932C1125.79 201.932 1157.35 215.192 1182.47 241.712C1207.93 267.882 1220.66 300.683 1220.66 340.114C1220.66 351.28 1219.61 361.748 1217.52 371.518H1031.78ZM1030.21 312.896H1142.7C1135.03 285.33 1116.54 271.546 1087.24 271.546C1056.9 271.546 1037.89 285.33 1030.21 312.896Z" fill="#2F2F2E"/>
<path d="M1421.86 209.26H1508.71L1411.92 470.967H1322.97L1226.18 209.26H1313.03L1367.44 375.182L1421.86 209.26Z" fill="#2F2F2E"/>
<path d="M1690.8 201.932C1718.71 201.932 1741.9 211.528 1760.39 230.72C1779.22 249.912 1788.64 276.432 1788.64 310.279V470.967H1710.16V321.794C1710.16 306.441 1705.8 294.751 1697.08 286.725C1688.71 278.351 1677.9 274.163 1664.64 274.163C1649.64 274.163 1637.79 278.7 1629.07 287.772C1620.35 296.845 1615.99 310.279 1615.99 328.075V470.967H1537.5V104.577H1615.99V233.86C1631.68 212.575 1656.62 201.932 1690.8 201.932Z" fill="#2F2F2E"/>
<path d="M2066.47 438.515C2039.61 465.035 2006.82 478.295 1968.11 478.295C1929.39 478.295 1896.6 465.035 1869.74 438.515C1842.89 411.647 1829.46 378.846 1829.46 340.114C1829.46 301.381 1842.89 268.755 1869.74 242.235C1896.6 215.367 1929.39 201.932 1968.11 201.932C2006.82 201.932 2039.61 215.367 2066.47 242.235C2093.33 268.755 2106.75 301.381 2106.75 340.114C2106.75 378.846 2093.33 411.647 2066.47 438.515ZM1925.2 384.604C1936.71 396.119 1951.01 401.876 1968.11 401.876C1985.2 401.876 1999.5 396.119 2011.01 384.604C2022.52 373.089 2028.27 358.259 2028.27 340.114C2028.27 321.969 2022.52 307.138 2011.01 295.623C1999.5 284.108 1985.2 278.351 1968.11 278.351C1951.01 278.351 1936.71 284.108 1925.2 295.623C1913.69 307.138 1907.94 321.969 1907.94 340.114C1907.94 358.259 1913.69 373.089 1925.2 384.604Z" fill="#2F2F2E"/>
<path d="M2320.14 209.26H2398.62V470.967H2320.14V446.367C2304.44 467.652 2279.5 478.295 2245.32 478.295C2217.42 478.295 2194.05 468.699 2175.21 449.507C2156.73 430.315 2147.48 403.796 2147.48 369.948V209.26H2225.96V358.433C2225.96 373.787 2230.15 385.651 2238.52 394.025C2247.24 402.051 2258.23 406.064 2271.48 406.064C2286.48 406.064 2298.34 401.528 2307.06 392.455C2315.78 383.383 2320.14 369.948 2320.14 352.152V209.26Z" fill="#2F2F2E"/>
<path d="M2527.92 285.679C2527.92 290.913 2532.28 295.274 2541 298.764C2550.07 301.904 2560.88 305.219 2573.43 308.709C2585.99 311.849 2598.55 316.037 2611.11 321.271C2623.66 326.505 2634.3 335.228 2643.02 347.441C2652.09 359.305 2656.62 374.31 2656.62 392.455C2656.62 420.719 2646.16 442.179 2625.23 456.835C2604.3 471.142 2578.49 478.295 2547.8 478.295C2492.69 478.295 2455.19 457.533 2435.31 416.009L2503.33 377.276C2510.3 397.864 2525.13 408.157 2547.8 408.157C2566.63 408.157 2576.05 402.749 2576.05 391.932C2576.05 386.697 2571.52 382.336 2562.45 378.846C2553.73 375.357 2543.09 372.042 2530.53 368.901C2517.98 365.412 2505.42 361.05 2492.86 355.816C2480.3 350.233 2469.49 341.684 2460.42 330.169C2451.7 318.654 2447.34 304.521 2447.34 287.772C2447.34 260.555 2457.11 239.444 2476.64 224.439C2496.52 209.434 2520.94 201.932 2549.89 201.932C2571.52 201.932 2591.22 206.817 2609.01 216.588C2626.8 226.009 2641.1 239.793 2651.92 257.938L2584.95 294.053C2576.57 278.7 2564.89 271.023 2549.89 271.023C2535.24 271.023 2527.92 275.908 2527.92 285.679Z" fill="#2F2F2E"/>
<path d="M2763.36 371.518C2772.43 395.944 2793.36 408.157 2826.15 408.157C2847.42 408.157 2864.17 401.528 2876.37 388.268L2939.16 424.383C2913.35 460.324 2875.33 478.295 2825.1 478.295C2781.15 478.295 2745.92 465.21 2719.41 439.039C2693.25 412.868 2680.17 379.893 2680.17 340.114C2680.17 300.683 2693.08 267.882 2718.89 241.712C2745.05 215.192 2778.53 201.932 2819.34 201.932C2857.36 201.932 2888.93 215.192 2914.04 241.712C2939.51 267.882 2952.24 300.683 2952.24 340.114C2952.24 351.28 2951.19 361.748 2949.1 371.518H2763.36ZM2761.79 312.896H2874.28C2866.61 285.33 2848.12 271.546 2818.82 271.546C2788.48 271.546 2769.47 285.33 2761.79 312.896Z" fill="#2F2F2E"/>
</g>
<defs>
<clipPath id="clip0_285_18">
<rect width="2997" height="600" fill="white"/>
</clipPath>
</defs>
</svg>
